PathFileType	4	(X/Y/Z)	C:\Users\86182\Documents\cortex\Trimmed_M3_H12.trc
DataRate	CameraRate	NumFrames	NumMarkers	Units	OrigDataRate	OrigDataStartFrame	OrigNumFrames
100.00	100.00	       87	2	mm	100.00	1	       851
Frame#	Time	gripper			box			
		X1	Y1	Z1	X2	Y2	Z2	

1	0.000	267.98404	172.47221	192.38882	267.34137	168.46027	57.40358	
2	0.010	267.98651	172.47150	192.38792	267.43384	168.48918	57.38309	
3	0.020	267.98761	172.47141	192.38788	267.60556	168.54359	57.34358	
4	0.030	267.98734	172.47191	192.38879	267.79700	168.60472	57.29864	
5	0.040	267.98593	172.47290	192.39052	267.93893	168.65047	57.26443	
6	0.050	267.98383	172.47421	192.39273	267.99557	168.66931	57.24963	
7	0.060	267.98163	172.47554	192.39493	267.97516	168.66364	57.25275	
8	0.070	267.98007	172.47667	192.39658	267.92648	168.64882	57.26271	
9	0.080	267.97943	172.47740	192.39737	267.92163	168.64780	57.26281	
10	0.090	267.97964	172.47774	192.39726	268.00522	168.67471	57.24274	
11	0.100	267.98035	172.47771	192.39641	268.15927	168.72379	57.20679	
12	0.110	267.98111	172.47740	192.39514	268.33347	168.77901	57.16670	
13	0.120	267.98157	172.47704	192.39406	268.48975	168.82835	57.13113	
14	0.130	267.98135	172.47678	192.39366	268.61124	168.86662	57.10363	
15	0.140	267.98038	172.47672	192.39401	268.69473	168.89301	57.08463	
16	0.150	267.97888	172.47681	192.39473	268.74451	168.90892	57.07288	
17	0.160	267.97723	172.47693	192.39532	268.76816	168.91682	57.06664	
18	0.170	267.97574	172.47702	192.39551	268.77420	168.91924	57.06422	
19	0.180	267.97452	172.47705	192.39539	268.77002	168.91843	57.06414	
20	0.190	267.97348	172.47708	192.39522	268.76114	168.91609	57.06522	
21	0.200	267.97244	172.47711	192.39519	268.75116	168.91333	57.06673	
22	0.210	267.97150	172.47716	192.39523	268.74231	168.91074	57.06833	
23	0.220	267.97092	172.47717	192.39529	268.73587	168.90862	57.06996	
24	0.230	267.97092	172.47725	192.39539	268.73245	168.90709	57.07162	
25	0.240	267.97137	172.47743	192.39557	268.73224	168.90623	57.07326	
26	0.250	267.97205	172.47778	192.39577	268.73505	168.90614	57.07456	
27	0.260	267.97263	172.47823	192.39590	268.74048	168.90704	57.07497	
28	0.270	267.97290	172.47870	192.39594	268.74780	168.90904	57.07394	
29	0.280	267.97287	172.47917	192.39590	268.75623	168.91202	57.07137	
30	0.290	267.97260	172.47958	192.39590	268.76456	168.91544	57.06789	
31	0.300	267.97226	172.47980	192.39601	268.77069	168.91832	57.06458	
32	0.310	267.97205	172.47975	192.39626	268.77097	168.91928	57.06277	
33	0.320	267.97195	172.47948	192.39661	268.75970	168.91643	57.06395	
34	0.330	267.97198	172.47914	192.39708	268.72943	168.90727	57.07001	
35	0.340	267.97189	172.47890	192.39774	268.67139	168.88908	57.08296	
36	0.350	267.97156	172.47887	192.39861	268.57770	168.85936	57.10458	
37	0.360	267.97113	172.47900	192.39954	268.44434	168.81677	57.13591	
38	0.370	267.97076	172.47925	192.40033	268.27646	168.76285	57.17599	
39	0.380	267.97058	172.47957	192.40091	268.09485	168.70418	57.21999	
40	0.390	267.97061	172.47987	192.40121	267.94434	168.65518	57.25719	
41	0.400	267.97073	172.48015	192.40118	267.88498	168.63522	57.27316	
42	0.410	267.97064	172.48044	192.40079	267.94733	168.65417	57.26043	
43	0.420	267.97006	172.48076	192.40012	268.10043	168.70222	57.22616	
44	0.430	267.96912	172.48116	192.39938	268.28384	168.76010	57.18447	
45	0.440	267.96814	172.48160	192.39877	268.45258	168.81351	57.14579	
46	0.450	267.96741	172.48198	192.39847	268.58578	168.85593	57.11473	
47	0.460	267.96692	172.48222	192.39862	268.67865	168.88596	57.09216	
48	0.470	267.96667	172.48230	192.39920	268.73529	168.90494	57.07708	
49	0.480	267.96658	172.48221	192.39995	268.76385	168.91537	57.06776	
50	0.490	267.96664	172.48207	192.40057	268.77322	168.91980	57.06270	
51	0.500	267.96680	172.48198	192.40097	268.77115	168.92032	57.06082	
52	0.510	267.96704	172.48199	192.40111	268.76346	168.91856	57.06125	
53	0.520	267.96747	172.48209	192.40106	268.75412	168.91571	57.06318	
54	0.530	267.96808	172.48216	192.40089	268.74570	168.91266	57.06586	
55	0.540	267.96875	172.48221	192.40067	268.73959	168.91002	57.06868	
56	0.550	267.96939	172.48225	192.40045	268.73657	168.90811	57.07127	
57	0.560	267.96982	172.48233	192.40024	268.73685	168.90707	57.07342	
58	0.570	267.96991	172.48245	192.40010	268.74048	168.90707	57.07489	
59	0.580	267.96960	172.48262	192.40010	268.74722	168.90820	57.07532	
60	0.590	267.96887	172.48276	192.40027	268.75635	168.91048	57.07449	
61	0.600	267.96793	172.48280	192.40051	268.76669	168.91353	57.07256	
62	0.610	267.96704	172.48271	192.40067	268.77609	168.91664	57.07016	
63	0.620	267.96646	172.48250	192.40060	268.78107	168.91858	57.06836	
64	0.630	267.96631	172.48218	192.40031	268.77628	168.91756	57.06857	
65	0.640	267.96661	172.48181	192.39970	268.75418	168.91121	57.07247	
66	0.650	267.96729	172.48146	192.39870	268.70554	168.89664	57.08215	
67	0.660	267.96832	172.48116	192.39728	268.62097	168.87076	57.09992	
68	0.670	267.96960	172.48085	192.39555	268.49411	168.83134	57.12768	
69	0.680	267.97079	172.48056	192.39383	268.32617	168.77850	57.16557	
70	0.690	267.97159	172.48030	192.39250	268.13245	168.71698	57.21035	
71	0.700	267.97177	172.48004	192.39186	267.95056	168.65868	57.25335	
72	0.710	267.97131	172.47986	192.39207	267.83224	168.62019	57.28236	
73	0.720	267.97015	172.47984	192.39313	267.79996	168.60889	57.29177	
74	0.730	267.96841	172.48009	192.39482	267.81860	168.61375	57.28942	
75	0.740	267.96640	172.48053	192.39670	267.83264	168.61722	57.28806	
76	0.750	267.96457	172.48109	192.39839	267.81799	168.61169	57.29315	
77	0.760	267.96344	172.48164	192.39975	267.79883	168.60503	57.29875	
78	0.770	267.96335	172.48209	192.40077	267.83051	168.61502	57.29161	
79	0.780	267.96451	172.48233	192.40147	267.94781	168.65279	57.26360	
80	0.790	267.96664	172.48232	192.40186	268.12827	168.71095	57.22032	
81	0.800	267.96936	172.48207	192.40192	268.32037	168.77289	57.17430	
82	0.810	267.97208	172.48166	192.40160	268.48706	168.82658	57.13452	
83	0.820	267.97437	172.48117	192.40079	268.61325	168.86726	57.10446	
84	0.830	267.97595	172.48065	192.39946	268.69772	168.89471	57.08415	
85	0.840	267.97684	172.48018	192.39766	268.74673	168.91100	57.07194	
86	0.850	267.97723	172.47981	192.39560	268.76938	168.91902	57.06570	
87	0.860	267.97745	172.47954	192.39348	268.77481	168.92149	57.06349	
